<svg xmlns="http://www.w3.org/2000/svg" version="1.1">
<g transform="translate(86.25, 50.0)">
<rect x="-86.25" y="-50.0" width="157.5" height="100.0" fill="black" />
<rect x="-62.5" y="-37.5" width="37.5" height="75.0" rx="0" ry="0" fill="red" opacity="0.8" />
<rect x="25.0" y="-37.5" width="37.5" height="75.0" rx="0" ry="0" fill="red" opacity="0.8" />
<polyline points="-12.5,0 12.5,0" stroke="blue" stroke-width="7.5" opacity="0.6" fill="none" stroke-linecap="round" />
<polyline points="0,12.5 0,-12.5" stroke="blue" stroke-width="7.5" opacity="0.6" fill="none" stroke-linecap="round" />
<polyline points="-50.0,-31.25 -50.0,31.25 50.0,31.25 50.0,-31.25 -50.0,-31.25" stroke="yellow" stroke-width="3.75" opacity="0.6" fill="none" stroke-linecap="round" />
<polyline points="-15.0,-37.5 15.0,-37.5" stroke="white" stroke-width="7.5" opacity="1" fill="none" stroke-linecap="round" />
<polyline points="-15.0,37.5 15.0,37.5" stroke="white" stroke-width="7.5" opacity="1" fill="none" stroke-linecap="round" />
<polyline points="-15.0,-37.5 -15.0,37.5" stroke="white" stroke-width="7.5" opacity="1" fill="none" stroke-linecap="round" />
<circle cx="-72.5" cy="0" r="5.0" fill="white" opacity="0.8" />
<polyline points="-82.5,46.25 67.5,46.25 67.5,-46.25 -82.5,-46.25 -82.5,46.25" stroke="magenta" stroke-width="7.5" opacity="0.6" fill="none" stroke-linecap="round" />
</g>
</svg>