<svg xmlns="http://www.w3.org/2000/svg" version="1.1">
<g transform="translate(197.5, 177.5)">
<rect x="-197.5" y="-177.5" width="375.0" height="355.0" fill="black" />
<rect x="-148.75" y="-95.0" width="48.75" height="15.0" rx="0" ry="0" fill="red" opacity="0.8" />
<circle cx="-163.75" cy="-87.5" r="5.0" fill="white" opacity="0.8" />
<polyline points="-105.0,-93.25 -125.0,-93.25 -125.0,-81.75 -105.0,-81.75 -105.0,-93.25" stroke="yellow" stroke-width="3.75" opacity="0.6" fill="none" stroke-linecap="round" />
<rect x="-148.75" y="-70.0" width="48.75" height="15.0" rx="7.5" ry="7.5" fill="red" opacity="0.8" />
<polyline points="-105.0,-68.25 -125.0,-68.25 -125.0,-56.75 -105.0,-56.75 -105.0,-68.25" stroke="yellow" stroke-width="3.75" opacity="0.6" fill="none" stroke-linecap="round" />
<rect x="-148.75" y="-45.0" width="48.75" height="15.0" rx="7.5" ry="7.5" fill="red" opacity="0.8" />
<polyline points="-105.0,-43.25 -125.0,-43.25 -125.0,-31.75 -105.0,-31.75 -105.0,-43.25" stroke="yellow" stroke-width="3.75" opacity="0.6" fill="none" stroke-linecap="round" />
<rect x="-148.75" y="-20.0" width="48.75" height="15.0" rx="7.5" ry="7.5" fill="red" opacity="0.8" />
<polyline points="-105.0,-18.25 -125.0,-18.25 -125.0,-6.75 -105.0,-6.75 -105.0,-18.25" stroke="yellow" stroke-width="3.75" opacity="0.6" fill="none" stroke-linecap="round" />
<rect x="-148.75" y="5.0" width="48.75" height="15.0" rx="7.5" ry="7.5" fill="red" opacity="0.8" />
<polyline points="-105.0,6.75 -125.0,6.75 -125.0,18.25 -105.0,18.25 -105.0,6.75" stroke="yellow" stroke-width="3.75" opacity="0.6" fill="none" stroke-linecap="round" />
<rect x="-148.75" y="30.0" width="48.75" height="15.0" rx="7.5" ry="7.5" fill="red" opacity="0.8" />
<polyline points="-105.0,31.75 -125.0,31.75 -125.0,43.25 -105.0,43.25 -105.0,31.75" stroke="yellow" stroke-width="3.75" opacity="0.6" fill="none" stroke-linecap="round" />
<rect x="-148.75" y="55.0" width="48.75" height="15.0" rx="7.5" ry="7.5" fill="red" opacity="0.8" />
<polyline points="-105.0,56.75 -125.0,56.75 -125.0,68.25 -105.0,68.25 -105.0,56.75" stroke="yellow" stroke-width="3.75" opacity="0.6" fill="none" stroke-linecap="round" />
<rect x="-148.75" y="80.0" width="48.75" height="15.0" rx="7.5" ry="7.5" fill="red" opacity="0.8" />
<polyline points="-105.0,81.75 -125.0,81.75 -125.0,93.25 -105.0,93.25 -105.0,81.75" stroke="yellow" stroke-width="3.75" opacity="0.6" fill="none" stroke-linecap="round" />
<rect x="-95.0" y="100.0" width="15.0" height="48.75" rx="7.5" ry="7.5" fill="red" opacity="0.8" />
<polyline points="-93.25,105.0 -93.25,125.0 -81.75,125.0 -81.75,105.0 -93.25,105.0" stroke="yellow" stroke-width="3.75" opacity="0.6" fill="none" stroke-linecap="round" />
<rect x="-70.0" y="100.0" width="15.0" height="48.75" rx="7.5" ry="7.5" fill="red" opacity="0.8" />
<polyline points="-68.25,105.0 -68.25,125.0 -56.75,125.0 -56.75,105.0 -68.25,105.0" stroke="yellow" stroke-width="3.75" opacity="0.6" fill="none" stroke-linecap="round" />
<rect x="-45.0" y="100.0" width="15.0" height="48.75" rx="7.5" ry="7.5" fill="red" opacity="0.8" />
<polyline points="-43.25,105.0 -43.25,125.0 -31.75,125.0 -31.75,105.0 -43.25,105.0" stroke="yellow" stroke-width="3.75" opacity="0.6" fill="none" stroke-linecap="round" />
<rect x="-20.0" y="100.0" width="15.0" height="48.75" rx="7.5" ry="7.5" fill="red" opacity="0.8" />
<polyline points="-18.25,105.0 -18.25,125.0 -6.75,125.0 -6.75,105.0 -18.25,105.0" stroke="yellow" stroke-width="3.75" opacity="0.6" fill="none" stroke-linecap="round" />
<rect x="5.0" y="100.0" width="15.0" height="48.75" rx="7.5" ry="7.5" fill="red" opacity="0.8" />
<polyline points="6.75,105.0 6.75,125.0 18.25,125.0 18.25,105.0 6.75,105.0" stroke="yellow" stroke-width="3.75" opacity="0.6" fill="none" stroke-linecap="round" />
<rect x="30.0" y="100.0" width="15.0" height="48.75" rx="7.5" ry="7.5" fill="red" opacity="0.8" />
<polyline points="31.75,105.0 31.75,125.0 43.25,125.0 43.25,105.0 31.75,105.0" stroke="yellow" stroke-width="3.75" opacity="0.6" fill="none" stroke-linecap="round" />
<rect x="55.0" y="100.0" width="15.0" height="48.75" rx="7.5" ry="7.5" fill="red" opacity="0.8" />
<polyline points="56.75,105.0 56.75,125.0 68.25,125.0 68.25,105.0 56.75,105.0" stroke="yellow" stroke-width="3.75" opacity="0.6" fill="none" stroke-linecap="round" />
<rect x="80.0" y="100.0" width="15.0" height="48.75" rx="7.5" ry="7.5" fill="red" opacity="0.8" />
<polyline points="81.75,105.0 81.75,125.0 93.25,125.0 93.25,105.0 81.75,105.0" stroke="yellow" stroke-width="3.75" opacity="0.6" fill="none" stroke-linecap="round" />
<rect x="100.0" y="80.0" width="48.75" height="15.0" rx="7.5" ry="7.5" fill="red" opacity="0.8" />
<polyline points="105.0,93.25 125.0,93.25 125.0,81.75 105.0,81.75 105.0,93.25" stroke="yellow" stroke-width="3.75" opacity="0.6" fill="none" stroke-linecap="round" />
<rect x="100.0" y="55.0" width="48.75" height="15.0" rx="7.5" ry="7.5" fill="red" opacity="0.8" />
<polyline points="105.0,68.25 125.0,68.25 125.0,56.75 105.0,56.75 105.0,68.25" stroke="yellow" stroke-width="3.75" opacity="0.6" fill="none" stroke-linecap="round" />
<rect x="100.0" y="30.0" width="48.75" height="15.0" rx="7.5" ry="7.5" fill="red" opacity="0.8" />
<polyline points="105.0,43.25 125.0,43.25 125.0,31.75 105.0,31.75 105.0,43.25" stroke="yellow" stroke-width="3.75" opacity="0.6" fill="none" stroke-linecap="round" />
<rect x="100.0" y="5.0" width="48.75" height="15.0" rx="7.5" ry="7.5" fill="red" opacity="0.8" />
<polyline points="105.0,18.25 125.0,18.25 125.0,6.75 105.0,6.75 105.0,18.25" stroke="yellow" stroke-width="3.75" opacity="0.6" fill="none" stroke-linecap="round" />
<rect x="100.0" y="-20.0" width="48.75" height="15.0" rx="7.5" ry="7.5" fill="red" opacity="0.8" />
<polyline points="105.0,-6.75 125.0,-6.75 125.0,-18.25 105.0,-18.25 105.0,-6.75" stroke="yellow" stroke-width="3.75" opacity="0.6" fill="none" stroke-linecap="round" />
<rect x="100.0" y="-45.0" width="48.75" height="15.0" rx="7.5" ry="7.5" fill="red" opacity="0.8" />
<polyline points="105.0,-31.75 125.0,-31.75 125.0,-43.25 105.0,-43.25 105.0,-31.75" stroke="yellow" stroke-width="3.75" opacity="0.6" fill="none" stroke-linecap="round" />
<rect x="100.0" y="-70.0" width="48.75" height="15.0" rx="7.5" ry="7.5" fill="red" opacity="0.8" />
<polyline points="105.0,-56.75 125.0,-56.75 125.0,-68.25 105.0,-68.25 105.0,-56.75" stroke="yellow" stroke-width="3.75" opacity="0.6" fill="none" stroke-linecap="round" />
<rect x="100.0" y="-95.0" width="48.75" height="15.0" rx="7.5" ry="7.5" fill="red" opacity="0.8" />
<polyline points="105.0,-81.75 125.0,-81.75 125.0,-93.25 105.0,-93.25 105.0,-81.75" stroke="yellow" stroke-width="3.75" opacity="0.6" fill="none" stroke-linecap="round" />
<rect x="80.0" y="-148.75" width="15.0" height="48.75" rx="7.5" ry="7.5" fill="red" opacity="0.8" />
<polyline points="93.25,-105.0 93.25,-125.0 81.75,-125.0 81.75,-105.0 93.25,-105.0" stroke="yellow" stroke-width="3.75" opacity="0.6" fill="none" stroke-linecap="round" />
<rect x="55.0" y="-148.75" width="15.0" height="48.75" rx="7.5" ry="7.5" fill="red" opacity="0.8" />
<polyline points="68.25,-105.0 68.25,-125.0 56.75,-125.0 56.75,-105.0 68.25,-105.0" stroke="yellow" stroke-width="3.75" opacity="0.6" fill="none" stroke-linecap="round" />
<rect x="30.0" y="-148.75" width="15.0" height="48.75" rx="7.5" ry="7.5" fill="red" opacity="0.8" />
<polyline points="43.25,-105.0 43.25,-125.0 31.75,-125.0 31.75,-105.0 43.25,-105.0" stroke="yellow" stroke-width="3.75" opacity="0.6" fill="none" stroke-linecap="round" />
<rect x="5.0" y="-148.75" width="15.0" height="48.75" rx="7.5" ry="7.5" fill="red" opacity="0.8" />
<polyline points="18.25,-105.0 18.25,-125.0 6.75,-125.0 6.75,-105.0 18.25,-105.0" stroke="yellow" stroke-width="3.75" opacity="0.6" fill="none" stroke-linecap="round" />
<rect x="-20.0" y="-148.75" width="15.0" height="48.75" rx="7.5" ry="7.5" fill="red" opacity="0.8" />
<polyline points="-6.75,-105.0 -6.75,-125.0 -18.25,-125.0 -18.25,-105.0 -6.75,-105.0" stroke="yellow" stroke-width="3.75" opacity="0.6" fill="none" stroke-linecap="round" />
<rect x="-45.0" y="-148.75" width="15.0" height="48.75" rx="7.5" ry="7.5" fill="red" opacity="0.8" />
<polyline points="-31.75,-105.0 -31.75,-125.0 -43.25,-125.0 -43.25,-105.0 -31.75,-105.0" stroke="yellow" stroke-width="3.75" opacity="0.6" fill="none" stroke-linecap="round" />
<rect x="-70.0" y="-148.75" width="15.0" height="48.75" rx="7.5" ry="7.5" fill="red" opacity="0.8" />
<polyline points="-56.75,-105.0 -56.75,-125.0 -68.25,-125.0 -68.25,-105.0 -56.75,-105.0" stroke="yellow" stroke-width="3.75" opacity="0.6" fill="none" stroke-linecap="round" />
<rect x="-95.0" y="-148.75" width="15.0" height="48.75" rx="7.5" ry="7.5" fill="red" opacity="0.8" />
<polyline points="-81.75,-105.0 -81.75,-125.0 -93.25,-125.0 -93.25,-105.0 -81.75,-105.0" stroke="yellow" stroke-width="3.75" opacity="0.6" fill="none" stroke-linecap="round" />
<polyline points="125.0,-125.0 125.0,125.0 -125.0,125.0 -125.0,-125.0 125.0,-125.0" stroke="yellow" stroke-width="3.75" opacity="0.6" fill="none" stroke-linecap="round" />
<polyline points="31.25,0 -31.25,0" stroke="blue" stroke-width="7.5" opacity="0.6" fill="none" stroke-linecap="round" />
<polyline points="0,-31.25 0,31.25" stroke="blue" stroke-width="7.5" opacity="0.6" fill="none" stroke-linecap="round" />
<polyline points="-125.0,-125.0 -107.5,-125.0" stroke="white" stroke-width="7.5" opacity="1" fill="none" stroke-linecap="round" />
<polyline points="125.0,-125.0 107.5,-125.0" stroke="white" stroke-width="7.5" opacity="1" fill="none" stroke-linecap="round" />
<polyline points="-125.0,125.0 -107.5,125.0" stroke="white" stroke-width="7.5" opacity="1" fill="none" stroke-linecap="round" />
<polyline points="125.0,125.0 107.5,125.0" stroke="white" stroke-width="7.5" opacity="1" fill="none" stroke-linecap="round" />
<polyline points="-125.0,-125.0 -125.0,-107.5" stroke="white" stroke-width="7.5" opacity="1" fill="none" stroke-linecap="round" />
<polyline points="-125.0,125.0 -125.0,107.5" stroke="white" stroke-width="7.5" opacity="1" fill="none" stroke-linecap="round" />
<polyline points="125.0,-125.0 125.0,-107.5" stroke="white" stroke-width="7.5" opacity="1" fill="none" stroke-linecap="round" />
<polyline points="125.0,125.0 125.0,107.5" stroke="white" stroke-width="7.5" opacity="1" fill="none" stroke-linecap="round" />
<polyline points="-193.75,173.75 173.75,173.75 173.75,-173.75 -193.75,-173.75 -193.75,173.75" stroke="magenta" stroke-width="7.5" opacity="0.6" fill="none" stroke-linecap="round" />
</g>
</svg>