<svg xmlns="http://www.w3.org/2000/svg" version="1.1">
<g transform="translate(267.5, 247.5)">
<rect x="-267.5" y="-247.5" width="515.0" height="495.0" fill="black" />
<rect x="-238.75" y="-153.75" width="63.75" height="27.5" rx="0" ry="0" fill="red" opacity="0.8" />
<circle cx="-253.75" cy="-140.0" r="5.0" fill="white" opacity="0.8" />
<polyline points="-195.0,-149.375 -225.0,-149.375 -225.0,-130.625 -195.0,-130.625 -195.0,-149.375" stroke="yellow" stroke-width="3.75" opacity="0.6" fill="none" stroke-linecap="round" />
<polyline points="-175.0,-149.375 -195.0,-149.375 -195.0,-130.625 -175.0,-130.625" stroke="yellow" stroke-width="3.75" opacity="0.6" fill="none" stroke-linecap="round" />
<rect x="-238.75" y="-113.75" width="63.75" height="27.5" rx="13.75" ry="13.75" fill="red" opacity="0.8" />
<polyline points="-195.0,-109.375 -225.0,-109.375 -225.0,-90.625 -195.0,-90.625 -195.0,-109.375" stroke="yellow" stroke-width="3.75" opacity="0.6" fill="none" stroke-linecap="round" />
<polyline points="-175.0,-109.375 -195.0,-109.375 -195.0,-90.625 -175.0,-90.625" stroke="yellow" stroke-width="3.75" opacity="0.6" fill="none" stroke-linecap="round" />
<rect x="-238.75" y="-73.75" width="63.75" height="27.5" rx="13.75" ry="13.75" fill="red" opacity="0.8" />
<polyline points="-195.0,-69.375 -225.0,-69.375 -225.0,-50.625 -195.0,-50.625 -195.0,-69.375" stroke="yellow" stroke-width="3.75" opacity="0.6" fill="none" stroke-linecap="round" />
<polyline points="-175.0,-69.375 -195.0,-69.375 -195.0,-50.625 -175.0,-50.625" stroke="yellow" stroke-width="3.75" opacity="0.6" fill="none" stroke-linecap="round" />
<rect x="-238.75" y="-33.75" width="63.75" height="27.5" rx="13.75" ry="13.75" fill="red" opacity="0.8" />
<polyline points="-195.0,-29.375 -225.0,-29.375 -225.0,-10.625 -195.0,-10.625 -195.0,-29.375" stroke="yellow" stroke-width="3.75" opacity="0.6" fill="none" stroke-linecap="round" />
<polyline points="-175.0,-29.375 -195.0,-29.375 -195.0,-10.625 -175.0,-10.625" stroke="yellow" stroke-width="3.75" opacity="0.6" fill="none" stroke-linecap="round" />
<rect x="-238.75" y="6.25" width="63.75" height="27.5" rx="13.75" ry="13.75" fill="red" opacity="0.8" />
<polyline points="-195.0,10.625 -225.0,10.625 -225.0,29.375 -195.0,29.375 -195.0,10.625" stroke="yellow" stroke-width="3.75" opacity="0.6" fill="none" stroke-linecap="round" />
<polyline points="-175.0,10.625 -195.0,10.625 -195.0,29.375 -175.0,29.375" stroke="yellow" stroke-width="3.75" opacity="0.6" fill="none" stroke-linecap="round" />
<rect x="-238.75" y="46.25" width="63.75" height="27.5" rx="13.75" ry="13.75" fill="red" opacity="0.8" />
<polyline points="-195.0,50.625 -225.0,50.625 -225.0,69.375 -195.0,69.375 -195.0,50.625" stroke="yellow" stroke-width="3.75" opacity="0.6" fill="none" stroke-linecap="round" />
<polyline points="-175.0,50.625 -195.0,50.625 -195.0,69.375 -175.0,69.375" stroke="yellow" stroke-width="3.75" opacity="0.6" fill="none" stroke-linecap="round" />
<rect x="-238.75" y="86.25" width="63.75" height="27.5" rx="13.75" ry="13.75" fill="red" opacity="0.8" />
<polyline points="-195.0,90.625 -225.0,90.625 -225.0,109.375 -195.0,109.375 -195.0,90.625" stroke="yellow" stroke-width="3.75" opacity="0.6" fill="none" stroke-linecap="round" />
<polyline points="-175.0,90.625 -195.0,90.625 -195.0,109.375 -175.0,109.375" stroke="yellow" stroke-width="3.75" opacity="0.6" fill="none" stroke-linecap="round" />
<rect x="-238.75" y="126.25" width="63.75" height="27.5" rx="13.75" ry="13.75" fill="red" opacity="0.8" />
<polyline points="-195.0,130.625 -225.0,130.625 -225.0,149.375 -195.0,149.375 -195.0,130.625" stroke="yellow" stroke-width="3.75" opacity="0.6" fill="none" stroke-linecap="round" />
<polyline points="-175.0,130.625 -195.0,130.625 -195.0,149.375 -175.0,149.375" stroke="yellow" stroke-width="3.75" opacity="0.6" fill="none" stroke-linecap="round" />
<rect x="-153.75" y="175.0" width="27.5" height="63.75" rx="13.75" ry="13.75" fill="red" opacity="0.8" />
<polyline points="-149.375,195.0 -149.375,225.0 -130.625,225.0 -130.625,195.0 -149.375,195.0" stroke="yellow" stroke-width="3.75" opacity="0.6" fill="none" stroke-linecap="round" />
<polyline points="-149.375,175.0 -149.375,195.0 -130.625,195.0 -130.625,175.0" stroke="yellow" stroke-width="3.75" opacity="0.6" fill="none" stroke-linecap="round" />
<rect x="-113.75" y="175.0" width="27.5" height="63.75" rx="13.75" ry="13.75" fill="red" opacity="0.8" />
<polyline points="-109.375,195.0 -109.375,225.0 -90.625,225.0 -90.625,195.0 -109.375,195.0" stroke="yellow" stroke-width="3.75" opacity="0.6" fill="none" stroke-linecap="round" />
<polyline points="-109.375,175.0 -109.375,195.0 -90.625,195.0 -90.625,175.0" stroke="yellow" stroke-width="3.75" opacity="0.6" fill="none" stroke-linecap="round" />
<rect x="-73.75" y="175.0" width="27.5" height="63.75" rx="13.75" ry="13.75" fill="red" opacity="0.8" />
<polyline points="-69.375,195.0 -69.375,225.0 -50.625,225.0 -50.625,195.0 -69.375,195.0" stroke="yellow" stroke-width="3.75" opacity="0.6" fill="none" stroke-linecap="round" />
<polyline points="-69.375,175.0 -69.375,195.0 -50.625,195.0 -50.625,175.0" stroke="yellow" stroke-width="3.75" opacity="0.6" fill="none" stroke-linecap="round" />
<rect x="-33.75" y="175.0" width="27.5" height="63.75" rx="13.75" ry="13.75" fill="red" opacity="0.8" />
<polyline points="-29.375,195.0 -29.375,225.0 -10.625,225.0 -10.625,195.0 -29.375,195.0" stroke="yellow" stroke-width="3.75" opacity="0.6" fill="none" stroke-linecap="round" />
<polyline points="-29.375,175.0 -29.375,195.0 -10.625,195.0 -10.625,175.0" stroke="yellow" stroke-width="3.75" opacity="0.6" fill="none" stroke-linecap="round" />
<rect x="6.25" y="175.0" width="27.5" height="63.75" rx="13.75" ry="13.75" fill="red" opacity="0.8" />
<polyline points="10.625,195.0 10.625,225.0 29.375,225.0 29.375,195.0 10.625,195.0" stroke="yellow" stroke-width="3.75" opacity="0.6" fill="none" stroke-linecap="round" />
<polyline points="10.625,175.0 10.625,195.0 29.375,195.0 29.375,175.0" stroke="yellow" stroke-width="3.75" opacity="0.6" fill="none" stroke-linecap="round" />
<rect x="46.25" y="175.0" width="27.5" height="63.75" rx="13.75" ry="13.75" fill="red" opacity="0.8" />
<polyline points="50.625,195.0 50.625,225.0 69.375,225.0 69.375,195.0 50.625,195.0" stroke="yellow" stroke-width="3.75" opacity="0.6" fill="none" stroke-linecap="round" />
<polyline points="50.625,175.0 50.625,195.0 69.375,195.0 69.375,175.0" stroke="yellow" stroke-width="3.75" opacity="0.6" fill="none" stroke-linecap="round" />
<rect x="86.25" y="175.0" width="27.5" height="63.75" rx="13.75" ry="13.75" fill="red" opacity="0.8" />
<polyline points="90.625,195.0 90.625,225.0 109.375,225.0 109.375,195.0 90.625,195.0" stroke="yellow" stroke-width="3.75" opacity="0.6" fill="none" stroke-linecap="round" />
<polyline points="90.625,175.0 90.625,195.0 109.375,195.0 109.375,175.0" stroke="yellow" stroke-width="3.75" opacity="0.6" fill="none" stroke-linecap="round" />
<rect x="126.25" y="175.0" width="27.5" height="63.75" rx="13.75" ry="13.75" fill="red" opacity="0.8" />
<polyline points="130.625,195.0 130.625,225.0 149.375,225.0 149.375,195.0 130.625,195.0" stroke="yellow" stroke-width="3.75" opacity="0.6" fill="none" stroke-linecap="round" />
<polyline points="130.625,175.0 130.625,195.0 149.375,195.0 149.375,175.0" stroke="yellow" stroke-width="3.75" opacity="0.6" fill="none" stroke-linecap="round" />
<rect x="175.0" y="126.25" width="63.75" height="27.5" rx="13.75" ry="13.75" fill="red" opacity="0.8" />
<polyline points="195.0,149.375 225.0,149.375 225.0,130.625 195.0,130.625 195.0,149.375" stroke="yellow" stroke-width="3.75" opacity="0.6" fill="none" stroke-linecap="round" />
<polyline points="175.0,149.375 195.0,149.375 195.0,130.625 175.0,130.625" stroke="yellow" stroke-width="3.75" opacity="0.6" fill="none" stroke-linecap="round" />
<rect x="175.0" y="86.25" width="63.75" height="27.5" rx="13.75" ry="13.75" fill="red" opacity="0.8" />
<polyline points="195.0,109.375 225.0,109.375 225.0,90.625 195.0,90.625 195.0,109.375" stroke="yellow" stroke-width="3.75" opacity="0.6" fill="none" stroke-linecap="round" />
<polyline points="175.0,109.375 195.0,109.375 195.0,90.625 175.0,90.625" stroke="yellow" stroke-width="3.75" opacity="0.6" fill="none" stroke-linecap="round" />
<rect x="175.0" y="46.25" width="63.75" height="27.5" rx="13.75" ry="13.75" fill="red" opacity="0.8" />
<polyline points="195.0,69.375 225.0,69.375 225.0,50.625 195.0,50.625 195.0,69.375" stroke="yellow" stroke-width="3.75" opacity="0.6" fill="none" stroke-linecap="round" />
<polyline points="175.0,69.375 195.0,69.375 195.0,50.625 175.0,50.625" stroke="yellow" stroke-width="3.75" opacity="0.6" fill="none" stroke-linecap="round" />
<rect x="175.0" y="6.25" width="63.75" height="27.5" rx="13.75" ry="13.75" fill="red" opacity="0.8" />
<polyline points="195.0,29.375 225.0,29.375 225.0,10.625 195.0,10.625 195.0,29.375" stroke="yellow" stroke-width="3.75" opacity="0.6" fill="none" stroke-linecap="round" />
<polyline points="175.0,29.375 195.0,29.375 195.0,10.625 175.0,10.625" stroke="yellow" stroke-width="3.75" opacity="0.6" fill="none" stroke-linecap="round" />
<rect x="175.0" y="-33.75" width="63.75" height="27.5" rx="13.75" ry="13.75" fill="red" opacity="0.8" />
<polyline points="195.0,-10.625 225.0,-10.625 225.0,-29.375 195.0,-29.375 195.0,-10.625" stroke="yellow" stroke-width="3.75" opacity="0.6" fill="none" stroke-linecap="round" />
<polyline points="175.0,-10.625 195.0,-10.625 195.0,-29.375 175.0,-29.375" stroke="yellow" stroke-width="3.75" opacity="0.6" fill="none" stroke-linecap="round" />
<rect x="175.0" y="-73.75" width="63.75" height="27.5" rx="13.75" ry="13.75" fill="red" opacity="0.8" />
<polyline points="195.0,-50.625 225.0,-50.625 225.0,-69.375 195.0,-69.375 195.0,-50.625" stroke="yellow" stroke-width="3.75" opacity="0.6" fill="none" stroke-linecap="round" />
<polyline points="175.0,-50.625 195.0,-50.625 195.0,-69.375 175.0,-69.375" stroke="yellow" stroke-width="3.75" opacity="0.6" fill="none" stroke-linecap="round" />
<rect x="175.0" y="-113.75" width="63.75" height="27.5" rx="13.75" ry="13.75" fill="red" opacity="0.8" />
<polyline points="195.0,-90.625 225.0,-90.625 225.0,-109.375 195.0,-109.375 195.0,-90.625" stroke="yellow" stroke-width="3.75" opacity="0.6" fill="none" stroke-linecap="round" />
<polyline points="175.0,-90.625 195.0,-90.625 195.0,-109.375 175.0,-109.375" stroke="yellow" stroke-width="3.75" opacity="0.6" fill="none" stroke-linecap="round" />
<rect x="175.0" y="-153.75" width="63.75" height="27.5" rx="13.75" ry="13.75" fill="red" opacity="0.8" />
<polyline points="195.0,-130.625 225.0,-130.625 225.0,-149.375 195.0,-149.375 195.0,-130.625" stroke="yellow" stroke-width="3.75" opacity="0.6" fill="none" stroke-linecap="round" />
<polyline points="175.0,-130.625 195.0,-130.625 195.0,-149.375 175.0,-149.375" stroke="yellow" stroke-width="3.75" opacity="0.6" fill="none" stroke-linecap="round" />
<rect x="126.25" y="-238.75" width="27.5" height="63.75" rx="13.75" ry="13.75" fill="red" opacity="0.8" />
<polyline points="149.375,-195.0 149.375,-225.0 130.625,-225.0 130.625,-195.0 149.375,-195.0" stroke="yellow" stroke-width="3.75" opacity="0.6" fill="none" stroke-linecap="round" />
<polyline points="149.375,-175.0 149.375,-195.0 130.625,-195.0 130.625,-175.0" stroke="yellow" stroke-width="3.75" opacity="0.6" fill="none" stroke-linecap="round" />
<rect x="86.25" y="-238.75" width="27.5" height="63.75" rx="13.75" ry="13.75" fill="red" opacity="0.8" />
<polyline points="109.375,-195.0 109.375,-225.0 90.625,-225.0 90.625,-195.0 109.375,-195.0" stroke="yellow" stroke-width="3.75" opacity="0.6" fill="none" stroke-linecap="round" />
<polyline points="109.375,-175.0 109.375,-195.0 90.625,-195.0 90.625,-175.0" stroke="yellow" stroke-width="3.75" opacity="0.6" fill="none" stroke-linecap="round" />
<rect x="46.25" y="-238.75" width="27.5" height="63.75" rx="13.75" ry="13.75" fill="red" opacity="0.8" />
<polyline points="69.375,-195.0 69.375,-225.0 50.625,-225.0 50.625,-195.0 69.375,-195.0" stroke="yellow" stroke-width="3.75" opacity="0.6" fill="none" stroke-linecap="round" />
<polyline points="69.375,-175.0 69.375,-195.0 50.625,-195.0 50.625,-175.0" stroke="yellow" stroke-width="3.75" opacity="0.6" fill="none" stroke-linecap="round" />
<rect x="6.25" y="-238.75" width="27.5" height="63.75" rx="13.75" ry="13.75" fill="red" opacity="0.8" />
<polyline points="29.375,-195.0 29.375,-225.0 10.625,-225.0 10.625,-195.0 29.375,-195.0" stroke="yellow" stroke-width="3.75" opacity="0.6" fill="none" stroke-linecap="round" />
<polyline points="29.375,-175.0 29.375,-195.0 10.625,-195.0 10.625,-175.0" stroke="yellow" stroke-width="3.75" opacity="0.6" fill="none" stroke-linecap="round" />
<rect x="-33.75" y="-238.75" width="27.5" height="63.75" rx="13.75" ry="13.75" fill="red" opacity="0.8" />
<polyline points="-10.625,-195.0 -10.625,-225.0 -29.375,-225.0 -29.375,-195.0 -10.625,-195.0" stroke="yellow" stroke-width="3.75" opacity="0.6" fill="none" stroke-linecap="round" />
<polyline points="-10.625,-175.0 -10.625,-195.0 -29.375,-195.0 -29.375,-175.0" stroke="yellow" stroke-width="3.75" opacity="0.6" fill="none" stroke-linecap="round" />
<rect x="-73.75" y="-238.75" width="27.5" height="63.75" rx="13.75" ry="13.75" fill="red" opacity="0.8" />
<polyline points="-50.625,-195.0 -50.625,-225.0 -69.375,-225.0 -69.375,-195.0 -50.625,-195.0" stroke="yellow" stroke-width="3.75" opacity="0.6" fill="none" stroke-linecap="round" />
<polyline points="-50.625,-175.0 -50.625,-195.0 -69.375,-195.0 -69.375,-175.0" stroke="yellow" stroke-width="3.75" opacity="0.6" fill="none" stroke-linecap="round" />
<rect x="-113.75" y="-238.75" width="27.5" height="63.75" rx="13.75" ry="13.75" fill="red" opacity="0.8" />
<polyline points="-90.625,-195.0 -90.625,-225.0 -109.375,-225.0 -109.375,-195.0 -90.625,-195.0" stroke="yellow" stroke-width="3.75" opacity="0.6" fill="none" stroke-linecap="round" />
<polyline points="-90.625,-175.0 -90.625,-195.0 -109.375,-195.0 -109.375,-175.0" stroke="yellow" stroke-width="3.75" opacity="0.6" fill="none" stroke-linecap="round" />
<rect x="-153.75" y="-238.75" width="27.5" height="63.75" rx="13.75" ry="13.75" fill="red" opacity="0.8" />
<polyline points="-130.625,-195.0 -130.625,-225.0 -149.375,-225.0 -149.375,-195.0 -130.625,-195.0" stroke="yellow" stroke-width="3.75" opacity="0.6" fill="none" stroke-linecap="round" />
<polyline points="-130.625,-175.0 -130.625,-195.0 -149.375,-195.0 -149.375,-175.0" stroke="yellow" stroke-width="3.75" opacity="0.6" fill="none" stroke-linecap="round" />
<polyline points="175.0,-175.0 175.0,175.0 -175.0,175.0 -175.0,-175.0 175.0,-175.0" stroke="yellow" stroke-width="3.75" opacity="0.6" fill="none" stroke-linecap="round" />
<polyline points="43.75,0 -43.75,0" stroke="blue" stroke-width="7.5" opacity="0.6" fill="none" stroke-linecap="round" />
<polyline points="0,-43.75 0,43.75" stroke="blue" stroke-width="7.5" opacity="0.6" fill="none" stroke-linecap="round" />
<polyline points="-175.0,-175.0 -167.5,-175.0" stroke="white" stroke-width="7.5" opacity="1" fill="none" stroke-linecap="round" />
<polyline points="175.0,-175.0 167.5,-175.0" stroke="white" stroke-width="7.5" opacity="1" fill="none" stroke-linecap="round" />
<polyline points="-175.0,175.0 -167.5,175.0" stroke="white" stroke-width="7.5" opacity="1" fill="none" stroke-linecap="round" />
<polyline points="175.0,175.0 167.5,175.0" stroke="white" stroke-width="7.5" opacity="1" fill="none" stroke-linecap="round" />
<polyline points="-175.0,-175.0 -175.0,-167.5" stroke="white" stroke-width="7.5" opacity="1" fill="none" stroke-linecap="round" />
<polyline points="-175.0,175.0 -175.0,167.5" stroke="white" stroke-width="7.5" opacity="1" fill="none" stroke-linecap="round" />
<polyline points="175.0,-175.0 175.0,-167.5" stroke="white" stroke-width="7.5" opacity="1" fill="none" stroke-linecap="round" />
<polyline points="175.0,175.0 175.0,167.5" stroke="white" stroke-width="7.5" opacity="1" fill="none" stroke-linecap="round" />
<polyline points="-263.75,243.75 243.75,243.75 243.75,-243.75 -263.75,-243.75 -263.75,243.75" stroke="magenta" stroke-width="7.5" opacity="0.6" fill="none" stroke-linecap="round" />
</g>
</svg>