<svg xmlns="http://www.w3.org/2000/svg" version="1.1">
<g transform="translate(137.5, 90.0)">
<rect x="-137.5" y="-90.0" width="255.0" height="180.0" fill="black" />
<rect x="-88.75" y="-46.25" width="72.5" height="17.5" rx="0" ry="0" fill="red" opacity="0.8" />
<circle cx="-103.75" cy="-37.5" r="5.0" fill="white" opacity="0.8" />
<polyline points="-34.5,-42.75 -52.5,-42.75 -52.5,-32.25 -34.5,-32.25 -34.5,-42.75" stroke="yellow" stroke-width="3.75" opacity="0.6" fill="none" stroke-linecap="round" />
<polyline points="-31.25,-42.75 -34.5,-42.75 -34.5,-32.25 -31.25,-32.25" stroke="yellow" stroke-width="3.75" opacity="0.6" fill="none" stroke-linecap="round" />
<rect x="-88.75" y="-21.25" width="72.5" height="17.5" rx="8.75" ry="8.75" fill="red" opacity="0.8" />
<polyline points="-34.5,-17.75 -52.5,-17.75 -52.5,-7.25 -34.5,-7.25 -34.5,-17.75" stroke="yellow" stroke-width="3.75" opacity="0.6" fill="none" stroke-linecap="round" />
<polyline points="-31.25,-17.75 -34.5,-17.75 -34.5,-7.25 -31.25,-7.25" stroke="yellow" stroke-width="3.75" opacity="0.6" fill="none" stroke-linecap="round" />
<rect x="-88.75" y="3.75" width="72.5" height="17.5" rx="8.75" ry="8.75" fill="red" opacity="0.8" />
<polyline points="-34.5,7.25 -52.5,7.25 -52.5,17.75 -34.5,17.75 -34.5,7.25" stroke="yellow" stroke-width="3.75" opacity="0.6" fill="none" stroke-linecap="round" />
<polyline points="-31.25,7.25 -34.5,7.25 -34.5,17.75 -31.25,17.75" stroke="yellow" stroke-width="3.75" opacity="0.6" fill="none" stroke-linecap="round" />
<rect x="-88.75" y="28.75" width="72.5" height="17.5" rx="8.75" ry="8.75" fill="red" opacity="0.8" />
<polyline points="-34.5,32.25 -52.5,32.25 -52.5,42.75 -34.5,42.75 -34.5,32.25" stroke="yellow" stroke-width="3.75" opacity="0.6" fill="none" stroke-linecap="round" />
<polyline points="-31.25,32.25 -34.5,32.25 -34.5,42.75 -31.25,42.75" stroke="yellow" stroke-width="3.75" opacity="0.6" fill="none" stroke-linecap="round" />
<rect x="16.25" y="28.75" width="72.5" height="17.5" rx="8.75" ry="8.75" fill="red" opacity="0.8" />
<polyline points="34.5,42.75 52.5,42.75 52.5,32.25 34.5,32.25 34.5,42.75" stroke="yellow" stroke-width="3.75" opacity="0.6" fill="none" stroke-linecap="round" />
<polyline points="31.25,42.75 34.5,42.75 34.5,32.25 31.25,32.25" stroke="yellow" stroke-width="3.75" opacity="0.6" fill="none" stroke-linecap="round" />
<rect x="16.25" y="3.75" width="72.5" height="17.5" rx="8.75" ry="8.75" fill="red" opacity="0.8" />
<polyline points="34.5,17.75 52.5,17.75 52.5,7.25 34.5,7.25 34.5,17.75" stroke="yellow" stroke-width="3.75" opacity="0.6" fill="none" stroke-linecap="round" />
<polyline points="31.25,17.75 34.5,17.75 34.5,7.25 31.25,7.25" stroke="yellow" stroke-width="3.75" opacity="0.6" fill="none" stroke-linecap="round" />
<rect x="16.25" y="-21.25" width="72.5" height="17.5" rx="8.75" ry="8.75" fill="red" opacity="0.8" />
<polyline points="34.5,-7.25 52.5,-7.25 52.5,-17.75 34.5,-17.75 34.5,-7.25" stroke="yellow" stroke-width="3.75" opacity="0.6" fill="none" stroke-linecap="round" />
<polyline points="31.25,-7.25 34.5,-7.25 34.5,-17.75 31.25,-17.75" stroke="yellow" stroke-width="3.75" opacity="0.6" fill="none" stroke-linecap="round" />
<rect x="16.25" y="-46.25" width="72.5" height="17.5" rx="8.75" ry="8.75" fill="red" opacity="0.8" />
<polyline points="34.5,-32.25 52.5,-32.25 52.5,-42.75 34.5,-42.75 34.5,-32.25" stroke="yellow" stroke-width="3.75" opacity="0.6" fill="none" stroke-linecap="round" />
<polyline points="31.25,-32.25 34.5,-32.25 34.5,-42.75 31.25,-42.75" stroke="yellow" stroke-width="3.75" opacity="0.6" fill="none" stroke-linecap="round" />
<polyline points="31.25,-50.0 31.25,50.0 -31.25,50.0 -31.25,-50.0 31.25,-50.0" stroke="yellow" stroke-width="3.75" opacity="0.6" fill="none" stroke-linecap="round" />
<polyline points="7.8125,0 -7.8125,0" stroke="blue" stroke-width="7.5" opacity="0.6" fill="none" stroke-linecap="round" />
<polyline points="0,-7.8125 0,7.8125" stroke="blue" stroke-width="7.5" opacity="0.6" fill="none" stroke-linecap="round" />
<polyline points="-31.25,-57.5 31.25,-57.5" stroke="white" stroke-width="7.5" opacity="1" fill="none" stroke-linecap="round" />
<polyline points="-31.25,57.5 31.25,57.5" stroke="white" stroke-width="7.5" opacity="1" fill="none" stroke-linecap="round" />
<polyline points="-31.25,-57.5 -31.25,-57.5" stroke="white" stroke-width="7.5" opacity="1" fill="none" stroke-linecap="round" />
<polyline points="-31.25,57.5 -31.25,57.5" stroke="white" stroke-width="7.5" opacity="1" fill="none" stroke-linecap="round" />
<polyline points="31.25,-57.5 31.25,-57.5" stroke="white" stroke-width="7.5" opacity="1" fill="none" stroke-linecap="round" />
<polyline points="31.25,57.5 31.25,57.5" stroke="white" stroke-width="7.5" opacity="1" fill="none" stroke-linecap="round" />
<polyline points="-133.75,86.25 113.75,86.25 113.75,-86.25 -133.75,-86.25 -133.75,86.25" stroke="magenta" stroke-width="7.5" opacity="0.6" fill="none" stroke-linecap="round" />
</g>
</svg>