<svg xmlns="http://www.w3.org/2000/svg" version="1.1">
<g transform="translate(97.5, 68.75)">
<rect x="-97.5" y="-68.75" width="175.0" height="137.5" fill="black" />
<rect x="-68.75" y="-42.5" width="42.5" height="20.0" rx="0" ry="0" fill="red" opacity="0.8" />
<circle cx="-83.75" cy="-32.5" r="5.0" fill="white" opacity="0.8" />
<polyline points="-34.5,-38.125 -52.5,-38.125 -52.5,-26.875 -34.5,-26.875 -34.5,-38.125" stroke="yellow" stroke-width="3.75" opacity="0.6" fill="none" stroke-linecap="round" />
<polyline points="-31.25,-38.125 -34.5,-38.125 -34.5,-26.875 -31.25,-26.875" stroke="yellow" stroke-width="3.75" opacity="0.6" fill="none" stroke-linecap="round" />
<rect x="-68.75" y="-10.0" width="42.5" height="20.0" rx="10.0" ry="10.0" fill="red" opacity="0.8" />
<polyline points="-34.5,-5.625 -52.5,-5.625 -52.5,5.625 -34.5,5.625 -34.5,-5.625" stroke="yellow" stroke-width="3.75" opacity="0.6" fill="none" stroke-linecap="round" />
<polyline points="-31.25,-5.625 -34.5,-5.625 -34.5,5.625 -31.25,5.625" stroke="yellow" stroke-width="3.75" opacity="0.6" fill="none" stroke-linecap="round" />
<rect x="-68.75" y="22.5" width="42.5" height="20.0" rx="10.0" ry="10.0" fill="red" opacity="0.8" />
<polyline points="-34.5,26.875 -52.5,26.875 -52.5,38.125 -34.5,38.125 -34.5,26.875" stroke="yellow" stroke-width="3.75" opacity="0.6" fill="none" stroke-linecap="round" />
<polyline points="-31.25,26.875 -34.5,26.875 -34.5,38.125 -31.25,38.125" stroke="yellow" stroke-width="3.75" opacity="0.6" fill="none" stroke-linecap="round" />
<rect x="26.25" y="22.5" width="42.5" height="20.0" rx="10.0" ry="10.0" fill="red" opacity="0.8" />
<polyline points="34.5,38.125 52.5,38.125 52.5,26.875 34.5,26.875 34.5,38.125" stroke="yellow" stroke-width="3.75" opacity="0.6" fill="none" stroke-linecap="round" />
<polyline points="31.25,38.125 34.5,38.125 34.5,26.875 31.25,26.875" stroke="yellow" stroke-width="3.75" opacity="0.6" fill="none" stroke-linecap="round" />
<rect x="26.25" y="-42.5" width="42.5" height="20.0" rx="10.0" ry="10.0" fill="red" opacity="0.8" />
<polyline points="34.5,-26.875 52.5,-26.875 52.5,-38.125 34.5,-38.125 34.5,-26.875" stroke="yellow" stroke-width="3.75" opacity="0.6" fill="none" stroke-linecap="round" />
<polyline points="31.25,-26.875 34.5,-26.875 34.5,-38.125 31.25,-38.125" stroke="yellow" stroke-width="3.75" opacity="0.6" fill="none" stroke-linecap="round" />
<polyline points="-31.25,-56.25 31.25,-56.25" stroke="white" stroke-width="7.5" opacity="1" fill="none" stroke-linecap="round" />
<polyline points="-31.25,56.25 31.25,56.25" stroke="white" stroke-width="7.5" opacity="1" fill="none" stroke-linecap="round" />
<polyline points="-31.25,-56.25 -31.25,-56.25" stroke="white" stroke-width="7.5" opacity="1" fill="none" stroke-linecap="round" />
<polyline points="-31.25,56.25 -31.25,56.25" stroke="white" stroke-width="7.5" opacity="1" fill="none" stroke-linecap="round" />
<polyline points="31.25,-56.25 31.25,-56.25" stroke="white" stroke-width="7.5" opacity="1" fill="none" stroke-linecap="round" />
<polyline points="31.25,56.25 31.25,56.25" stroke="white" stroke-width="7.5" opacity="1" fill="none" stroke-linecap="round" />
<polyline points="-31.25,50.0 31.25,50.0 31.25,-50.0 -31.25,-50.0 -31.25,50.0" stroke="yellow" stroke-width="3.75" opacity="0.6" fill="none" stroke-linecap="round" />
<polyline points="-15.625,0 15.625,0" stroke="blue" stroke-width="7.5" opacity="0.6" fill="none" stroke-linecap="round" />
<polyline points="0,15.625 0,-15.625" stroke="blue" stroke-width="7.5" opacity="0.6" fill="none" stroke-linecap="round" />
<polyline points="-93.75,65.0 73.75,65.0 73.75,-65.0 -93.75,-65.0 -93.75,65.0" stroke="magenta" stroke-width="7.5" opacity="0.6" fill="none" stroke-linecap="round" />
</g>
</svg>