<svg xmlns="http://www.w3.org/2000/svg" version="1.1">
<g transform="translate(115.0, 76.25)">
<rect x="-115.0" y="-76.25" width="210.0" height="152.5" fill="black" />
<rect x="-78.75" y="-42.5" width="57.5" height="20.0" rx="0" ry="0" fill="red" opacity="0.8" />
<circle cx="-93.75" cy="-32.5" r="5.0" fill="white" opacity="0.8" />
<polyline points="-34.5,-38.125 -52.5,-38.125 -52.5,-26.875 -34.5,-26.875 -34.5,-38.125" stroke="yellow" stroke-width="3.75" opacity="0.6" fill="none" stroke-linecap="round" />
<polyline points="-31.25,-38.125 -34.5,-38.125 -34.5,-26.875 -31.25,-26.875" stroke="yellow" stroke-width="3.75" opacity="0.6" fill="none" stroke-linecap="round" />
<rect x="-78.75" y="-10.0" width="57.5" height="20.0" rx="10.0" ry="10.0" fill="red" opacity="0.8" />
<polyline points="-34.5,-5.625 -52.5,-5.625 -52.5,5.625 -34.5,5.625 -34.5,-5.625" stroke="yellow" stroke-width="3.75" opacity="0.6" fill="none" stroke-linecap="round" />
<polyline points="-31.25,-5.625 -34.5,-5.625 -34.5,5.625 -31.25,5.625" stroke="yellow" stroke-width="3.75" opacity="0.6" fill="none" stroke-linecap="round" />
<rect x="-78.75" y="22.5" width="57.5" height="20.0" rx="10.0" ry="10.0" fill="red" opacity="0.8" />
<polyline points="-34.5,26.875 -52.5,26.875 -52.5,38.125 -34.5,38.125 -34.5,26.875" stroke="yellow" stroke-width="3.75" opacity="0.6" fill="none" stroke-linecap="round" />
<polyline points="-31.25,26.875 -34.5,26.875 -34.5,38.125 -31.25,38.125" stroke="yellow" stroke-width="3.75" opacity="0.6" fill="none" stroke-linecap="round" />
<rect x="21.25" y="22.5" width="57.5" height="20.0" rx="10.0" ry="10.0" fill="red" opacity="0.8" />
<polyline points="34.5,38.125 52.5,38.125 52.5,26.875 34.5,26.875 34.5,38.125" stroke="yellow" stroke-width="3.75" opacity="0.6" fill="none" stroke-linecap="round" />
<polyline points="31.25,38.125 34.5,38.125 34.5,26.875 31.25,26.875" stroke="yellow" stroke-width="3.75" opacity="0.6" fill="none" stroke-linecap="round" />
<rect x="21.25" y="-10.0" width="57.5" height="20.0" rx="10.0" ry="10.0" fill="red" opacity="0.8" />
<polyline points="34.5,5.625 52.5,5.625 52.5,-5.625 34.5,-5.625 34.5,5.625" stroke="yellow" stroke-width="3.75" opacity="0.6" fill="none" stroke-linecap="round" />
<polyline points="31.25,5.625 34.5,5.625 34.5,-5.625 31.25,-5.625" stroke="yellow" stroke-width="3.75" opacity="0.6" fill="none" stroke-linecap="round" />
<rect x="21.25" y="-42.5" width="57.5" height="20.0" rx="10.0" ry="10.0" fill="red" opacity="0.8" />
<polyline points="34.5,-26.875 52.5,-26.875 52.5,-38.125 34.5,-38.125 34.5,-26.875" stroke="yellow" stroke-width="3.75" opacity="0.6" fill="none" stroke-linecap="round" />
<polyline points="31.25,-26.875 34.5,-26.875 34.5,-38.125 31.25,-38.125" stroke="yellow" stroke-width="3.75" opacity="0.6" fill="none" stroke-linecap="round" />
<polyline points="31.25,-50.0 31.25,50.0 -31.25,50.0 -31.25,-50.0 31.25,-50.0" stroke="yellow" stroke-width="3.75" opacity="0.6" fill="none" stroke-linecap="round" />
<polyline points="7.8125,0 -7.8125,0" stroke="blue" stroke-width="7.5" opacity="0.6" fill="none" stroke-linecap="round" />
<polyline points="0,-7.8125 0,7.8125" stroke="blue" stroke-width="7.5" opacity="0.6" fill="none" stroke-linecap="round" />
<polyline points="-31.25,-56.25 31.25,-56.25" stroke="white" stroke-width="7.5" opacity="1" fill="none" stroke-linecap="round" />
<polyline points="-31.25,56.25 31.25,56.25" stroke="white" stroke-width="7.5" opacity="1" fill="none" stroke-linecap="round" />
<polyline points="-31.25,-56.25 -31.25,-56.25" stroke="white" stroke-width="7.5" opacity="1" fill="none" stroke-linecap="round" />
<polyline points="-31.25,56.25 -31.25,56.25" stroke="white" stroke-width="7.5" opacity="1" fill="none" stroke-linecap="round" />
<polyline points="31.25,-56.25 31.25,-56.25" stroke="white" stroke-width="7.5" opacity="1" fill="none" stroke-linecap="round" />
<polyline points="31.25,56.25 31.25,56.25" stroke="white" stroke-width="7.5" opacity="1" fill="none" stroke-linecap="round" />
<polyline points="-111.25,72.5 91.25,72.5 91.25,-72.5 -111.25,-72.5 -111.25,72.5" stroke="magenta" stroke-width="7.5" opacity="0.6" fill="none" stroke-linecap="round" />
</g>
</svg>