<svg xmlns="http://www.w3.org/2000/svg" version="1.1">
<g transform="translate(103.75, 85.5)">
<rect x="-103.75" y="-85.5" width="187.5" height="171.0" fill="black" />
<rect x="-75.0" y="-61.25" width="48.75" height="27.5" rx="0" ry="0" fill="red" opacity="0.8" />
<circle cx="-90.0" cy="-47.5" r="5.0" fill="white" opacity="0.8" />
<polyline points="-34.25,-57.5 -59.25,-57.5 -59.25,-37.5 -34.25,-37.5 -34.25,-57.5" stroke="yellow" stroke-width="3.75" opacity="0.6" fill="none" stroke-linecap="round" />
<polyline points="-32.5,-57.5 -34.25,-57.5 -34.25,-37.5 -32.5,-37.5" stroke="yellow" stroke-width="3.75" opacity="0.6" fill="none" stroke-linecap="round" />
<rect x="-75.0" y="33.75" width="48.75" height="27.5" rx="13.75" ry="13.75" fill="red" opacity="0.8" />
<polyline points="-34.25,37.5 -59.25,37.5 -59.25,57.5 -34.25,57.5 -34.25,37.5" stroke="yellow" stroke-width="3.75" opacity="0.6" fill="none" stroke-linecap="round" />
<polyline points="-32.5,37.5 -34.25,37.5 -34.25,57.5 -32.5,57.5" stroke="yellow" stroke-width="3.75" opacity="0.6" fill="none" stroke-linecap="round" />
<rect x="26.25" y="-13.75" width="48.75" height="27.5" rx="13.75" ry="13.75" fill="red" opacity="0.8" />
<polyline points="34.25,10.0 59.25,10.0 59.25,-10.0 34.25,-10.0 34.25,10.0" stroke="yellow" stroke-width="3.75" opacity="0.6" fill="none" stroke-linecap="round" />
<polyline points="32.5,10.0 34.25,10.0 34.25,-10.0 32.5,-10.0" stroke="yellow" stroke-width="3.75" opacity="0.6" fill="none" stroke-linecap="round" />
<polyline points="-32.5,73.0 32.5,73.0 32.5,-73.0 -32.5,-73.0 -32.5,73.0" stroke="yellow" stroke-width="3.75" opacity="0.6" fill="none" stroke-linecap="round" />
<polyline points="-18.75,-73.0 32.5,-73.0 32.5,-21.25" stroke="white" stroke-width="7.5" opacity="1" fill="none" stroke-linecap="round" />
<polyline points="-18.75,73.0 32.5,73.0 32.5,21.25" stroke="white" stroke-width="7.5" opacity="1" fill="none" stroke-linecap="round" />
<polyline points="-32.5,-13.75 -32.5,13.75" stroke="white" stroke-width="7.5" opacity="1" fill="none" stroke-linecap="round" />
<polyline points="-16.25,0 16.25,0" stroke="blue" stroke-width="7.5" opacity="0.6" fill="none" stroke-linecap="round" />
<polyline points="0,16.25 0,-16.25" stroke="blue" stroke-width="7.5" opacity="0.6" fill="none" stroke-linecap="round" />
<polyline points="-100.0,81.75 80.0,81.75 80.0,-81.75 -100.0,-81.75 -100.0,81.75" stroke="magenta" stroke-width="7.5" opacity="0.6" fill="none" stroke-linecap="round" />
</g>
</svg>