<svg xmlns="http://www.w3.org/2000/svg" version="1.1">
<g transform="translate(130.0, 98.75)">
<rect x="-130.0" y="-98.75" width="240.0" height="197.5" fill="black" />
<rect x="-93.75" y="-62.5" width="61.25" height="30.0" rx="0" ry="0" fill="red" opacity="0.8" />
<circle cx="-108.75" cy="-47.5" r="5.0" fill="white" opacity="0.8" />
<polyline points="-47.5,-57.5 -70.0,-57.5 -70.0,-37.5 -47.5,-37.5 -47.5,-57.5" stroke="yellow" stroke-width="3.75" opacity="0.6" fill="none" stroke-linecap="round" />
<polyline points="-40.0,-57.5 -47.5,-57.5 -47.5,-37.5 -40.0,-37.5" stroke="yellow" stroke-width="3.75" opacity="0.6" fill="none" stroke-linecap="round" />
<rect x="-93.75" y="-15.0" width="61.25" height="30.0" rx="15.0" ry="15.0" fill="red" opacity="0.8" />
<polyline points="-47.5,-10.0 -70.0,-10.0 -70.0,10.0 -47.5,10.0 -47.5,-10.0" stroke="yellow" stroke-width="3.75" opacity="0.6" fill="none" stroke-linecap="round" />
<polyline points="-40.0,-10.0 -47.5,-10.0 -47.5,10.0 -40.0,10.0" stroke="yellow" stroke-width="3.75" opacity="0.6" fill="none" stroke-linecap="round" />
<rect x="-93.75" y="32.5" width="61.25" height="30.0" rx="15.0" ry="15.0" fill="red" opacity="0.8" />
<polyline points="-47.5,37.5 -70.0,37.5 -70.0,57.5 -47.5,57.5 -47.5,37.5" stroke="yellow" stroke-width="3.75" opacity="0.6" fill="none" stroke-linecap="round" />
<polyline points="-40.0,37.5 -47.5,37.5 -47.5,57.5 -40.0,57.5" stroke="yellow" stroke-width="3.75" opacity="0.6" fill="none" stroke-linecap="round" />
<rect x="32.5" y="32.5" width="61.25" height="30.0" rx="15.0" ry="15.0" fill="red" opacity="0.8" />
<polyline points="47.5,57.5 70.0,57.5 70.0,37.5 47.5,37.5 47.5,57.5" stroke="yellow" stroke-width="3.75" opacity="0.6" fill="none" stroke-linecap="round" />
<polyline points="40.0,57.5 47.5,57.5 47.5,37.5 40.0,37.5" stroke="yellow" stroke-width="3.75" opacity="0.6" fill="none" stroke-linecap="round" />
<rect x="32.5" y="-62.5" width="61.25" height="30.0" rx="15.0" ry="15.0" fill="red" opacity="0.8" />
<polyline points="47.5,-37.5 70.0,-37.5 70.0,-57.5 47.5,-57.5 47.5,-37.5" stroke="yellow" stroke-width="3.75" opacity="0.6" fill="none" stroke-linecap="round" />
<polyline points="40.0,-37.5 47.5,-37.5 47.5,-57.5 40.0,-57.5" stroke="yellow" stroke-width="3.75" opacity="0.6" fill="none" stroke-linecap="round" />
<polyline points="-40.0,-78.75 40.0,-78.75" stroke="white" stroke-width="7.5" opacity="1" fill="none" stroke-linecap="round" />
<polyline points="-40.0,78.75 40.0,78.75" stroke="white" stroke-width="7.5" opacity="1" fill="none" stroke-linecap="round" />
<polyline points="-40.0,-78.75 -40.0,-78.75" stroke="white" stroke-width="7.5" opacity="1" fill="none" stroke-linecap="round" />
<polyline points="-40.0,78.75 -40.0,78.75" stroke="white" stroke-width="7.5" opacity="1" fill="none" stroke-linecap="round" />
<polyline points="40.0,-78.75 40.0,-78.75" stroke="white" stroke-width="7.5" opacity="1" fill="none" stroke-linecap="round" />
<polyline points="40.0,78.75 40.0,78.75" stroke="white" stroke-width="7.5" opacity="1" fill="none" stroke-linecap="round" />
<polyline points="-40.0,72.5 40.0,72.5 40.0,-72.5 -40.0,-72.5 -40.0,72.5" stroke="yellow" stroke-width="3.75" opacity="0.6" fill="none" stroke-linecap="round" />
<polyline points="-20.0,0 20.0,0" stroke="blue" stroke-width="7.5" opacity="0.6" fill="none" stroke-linecap="round" />
<polyline points="0,20.0 0,-20.0" stroke="blue" stroke-width="7.5" opacity="0.6" fill="none" stroke-linecap="round" />
<polyline points="-126.25,95.0 106.25,95.0 106.25,-95.0 -126.25,-95.0 -126.25,95.0" stroke="magenta" stroke-width="7.5" opacity="0.6" fill="none" stroke-linecap="round" />
</g>
</svg>