<svg xmlns="http://www.w3.org/2000/svg" version="1.1">
<g transform="translate(152.5, 111.25)">
<rect x="-152.5" y="-111.25" width="285.0" height="222.5" fill="black" />
<rect x="-103.75" y="-63.75" width="76.25" height="32.5" rx="0" ry="0" fill="red" opacity="0.8" />
<circle cx="-118.75" cy="-47.5" r="5.0" fill="white" opacity="0.8" />
<polyline points="-47.5,-57.5 -70.0,-57.5 -70.0,-37.5 -47.5,-37.5 -47.5,-57.5" stroke="yellow" stroke-width="3.75" opacity="0.6" fill="none" stroke-linecap="round" />
<polyline points="-40.0,-57.5 -47.5,-57.5 -47.5,-37.5 -40.0,-37.5" stroke="yellow" stroke-width="3.75" opacity="0.6" fill="none" stroke-linecap="round" />
<rect x="-103.75" y="-16.25" width="76.25" height="32.5" rx="16.25" ry="16.25" fill="red" opacity="0.8" />
<polyline points="-47.5,-10.0 -70.0,-10.0 -70.0,10.0 -47.5,10.0 -47.5,-10.0" stroke="yellow" stroke-width="3.75" opacity="0.6" fill="none" stroke-linecap="round" />
<polyline points="-40.0,-10.0 -47.5,-10.0 -47.5,10.0 -40.0,10.0" stroke="yellow" stroke-width="3.75" opacity="0.6" fill="none" stroke-linecap="round" />
<rect x="-103.75" y="31.25" width="76.25" height="32.5" rx="16.25" ry="16.25" fill="red" opacity="0.8" />
<polyline points="-47.5,37.5 -70.0,37.5 -70.0,57.5 -47.5,57.5 -47.5,37.5" stroke="yellow" stroke-width="3.75" opacity="0.6" fill="none" stroke-linecap="round" />
<polyline points="-40.0,37.5 -47.5,37.5 -47.5,57.5 -40.0,57.5" stroke="yellow" stroke-width="3.75" opacity="0.6" fill="none" stroke-linecap="round" />
<rect x="27.5" y="31.25" width="76.25" height="32.5" rx="16.25" ry="16.25" fill="red" opacity="0.8" />
<polyline points="47.5,57.5 70.0,57.5 70.0,37.5 47.5,37.5 47.5,57.5" stroke="yellow" stroke-width="3.75" opacity="0.6" fill="none" stroke-linecap="round" />
<polyline points="40.0,57.5 47.5,57.5 47.5,37.5 40.0,37.5" stroke="yellow" stroke-width="3.75" opacity="0.6" fill="none" stroke-linecap="round" />
<rect x="27.5" y="-16.25" width="76.25" height="32.5" rx="16.25" ry="16.25" fill="red" opacity="0.8" />
<polyline points="47.5,10.0 70.0,10.0 70.0,-10.0 47.5,-10.0 47.5,10.0" stroke="yellow" stroke-width="3.75" opacity="0.6" fill="none" stroke-linecap="round" />
<polyline points="40.0,10.0 47.5,10.0 47.5,-10.0 40.0,-10.0" stroke="yellow" stroke-width="3.75" opacity="0.6" fill="none" stroke-linecap="round" />
<rect x="27.5" y="-63.75" width="76.25" height="32.5" rx="16.25" ry="16.25" fill="red" opacity="0.8" />
<polyline points="47.5,-37.5 70.0,-37.5 70.0,-57.5 47.5,-57.5 47.5,-37.5" stroke="yellow" stroke-width="3.75" opacity="0.6" fill="none" stroke-linecap="round" />
<polyline points="40.0,-37.5 47.5,-37.5 47.5,-57.5 40.0,-57.5" stroke="yellow" stroke-width="3.75" opacity="0.6" fill="none" stroke-linecap="round" />
<polyline points="40.0,-72.5 40.0,72.5 -40.0,72.5 -40.0,-72.5 40.0,-72.5" stroke="yellow" stroke-width="3.75" opacity="0.6" fill="none" stroke-linecap="round" />
<polyline points="10.0,0 -10.0,0" stroke="blue" stroke-width="7.5" opacity="0.6" fill="none" stroke-linecap="round" />
<polyline points="0,-10.0 0,10.0" stroke="blue" stroke-width="7.5" opacity="0.6" fill="none" stroke-linecap="round" />
<polyline points="-40.0,-78.75 40.0,-78.75" stroke="white" stroke-width="7.5" opacity="1" fill="none" stroke-linecap="round" />
<polyline points="-40.0,78.75 40.0,78.75" stroke="white" stroke-width="7.5" opacity="1" fill="none" stroke-linecap="round" />
<polyline points="-40.0,-78.75 -40.0,-78.75" stroke="white" stroke-width="7.5" opacity="1" fill="none" stroke-linecap="round" />
<polyline points="-40.0,78.75 -40.0,78.75" stroke="white" stroke-width="7.5" opacity="1" fill="none" stroke-linecap="round" />
<polyline points="40.0,-78.75 40.0,-78.75" stroke="white" stroke-width="7.5" opacity="1" fill="none" stroke-linecap="round" />
<polyline points="40.0,78.75 40.0,78.75" stroke="white" stroke-width="7.5" opacity="1" fill="none" stroke-linecap="round" />
<polyline points="-148.75,107.5 128.75,107.5 128.75,-107.5 -148.75,-107.5 -148.75,107.5" stroke="magenta" stroke-width="7.5" opacity="0.6" fill="none" stroke-linecap="round" />
</g>
</svg>