<svg xmlns="http://www.w3.org/2000/svg" version="1.1">
<g transform="translate(143.75, 105.5)">
<rect x="-143.75" y="-105.5" width="267.5" height="211.0" fill="black" />
<rect x="-95.0" y="-63.75" width="78.75" height="32.5" rx="0" ry="0" fill="red" opacity="0.8" />
<circle cx="-110.0" cy="-47.5" r="5.0" fill="white" opacity="0.8" />
<polyline points="-34.25,-57.5 -59.25,-57.5 -59.25,-37.5 -34.25,-37.5 -34.25,-57.5" stroke="yellow" stroke-width="3.75" opacity="0.6" fill="none" stroke-linecap="round" />
<polyline points="-32.5,-57.5 -34.25,-57.5 -34.25,-37.5 -32.5,-37.5" stroke="yellow" stroke-width="3.75" opacity="0.6" fill="none" stroke-linecap="round" />
<rect x="-95.0" y="31.25" width="78.75" height="32.5" rx="16.25" ry="16.25" fill="red" opacity="0.8" />
<polyline points="-34.25,37.5 -59.25,37.5 -59.25,57.5 -34.25,57.5 -34.25,37.5" stroke="yellow" stroke-width="3.75" opacity="0.6" fill="none" stroke-linecap="round" />
<polyline points="-32.5,37.5 -34.25,37.5 -34.25,57.5 -32.5,57.5" stroke="yellow" stroke-width="3.75" opacity="0.6" fill="none" stroke-linecap="round" />
<rect x="16.25" y="-16.25" width="78.75" height="32.5" rx="16.25" ry="16.25" fill="red" opacity="0.8" />
<polyline points="34.25,10.0 59.25,10.0 59.25,-10.0 34.25,-10.0 34.25,10.0" stroke="yellow" stroke-width="3.75" opacity="0.6" fill="none" stroke-linecap="round" />
<polyline points="32.5,10.0 34.25,10.0 34.25,-10.0 32.5,-10.0" stroke="yellow" stroke-width="3.75" opacity="0.6" fill="none" stroke-linecap="round" />
<polyline points="-32.5,73.0 32.5,73.0 32.5,-73.0 -32.5,-73.0 -32.5,73.0" stroke="yellow" stroke-width="3.75" opacity="0.6" fill="none" stroke-linecap="round" />
<polyline points="-8.75,-73.0 32.5,-73.0 32.5,-23.75" stroke="white" stroke-width="7.5" opacity="1" fill="none" stroke-linecap="round" />
<polyline points="-8.75,73.0 32.5,73.0 32.5,23.75" stroke="white" stroke-width="7.5" opacity="1" fill="none" stroke-linecap="round" />
<polyline points="-32.5,-16.25 -32.5,16.25" stroke="white" stroke-width="7.5" opacity="1" fill="none" stroke-linecap="round" />
<polyline points="-16.25,0 16.25,0" stroke="blue" stroke-width="7.5" opacity="0.6" fill="none" stroke-linecap="round" />
<polyline points="0,16.25 0,-16.25" stroke="blue" stroke-width="7.5" opacity="0.6" fill="none" stroke-linecap="round" />
<polyline points="-140.0,101.75 120.0,101.75 120.0,-101.75 -140.0,-101.75 -140.0,101.75" stroke="magenta" stroke-width="7.5" opacity="0.6" fill="none" stroke-linecap="round" />
</g>
</svg>