<svg xmlns="http://www.w3.org/2000/svg" version="1.1">
<g transform="translate(112.5, 85.0)">
<rect x="-112.5" y="-85.0" width="205.0" height="170.0" fill="black" />
<rect x="-83.75" y="-57.5" width="46.25" height="17.5" rx="0" ry="0" fill="red" opacity="0.8" />
<circle cx="-98.75" cy="-48.75" r="5.0" fill="white" opacity="0.8" />
<polyline points="-47.5,-56.25 -70.0,-56.25 -70.0,-41.25 -47.5,-41.25 -47.5,-56.25" stroke="yellow" stroke-width="3.75" opacity="0.6" fill="none" stroke-linecap="round" />
<polyline points="-40.0,-56.25 -47.5,-56.25 -47.5,-41.25 -40.0,-41.25" stroke="yellow" stroke-width="3.75" opacity="0.6" fill="none" stroke-linecap="round" />
<rect x="-83.75" y="-25.0" width="46.25" height="17.5" rx="8.75" ry="8.75" fill="red" opacity="0.8" />
<polyline points="-47.5,-23.75 -70.0,-23.75 -70.0,-8.75 -47.5,-8.75 -47.5,-23.75" stroke="yellow" stroke-width="3.75" opacity="0.6" fill="none" stroke-linecap="round" />
<polyline points="-40.0,-23.75 -47.5,-23.75 -47.5,-8.75 -40.0,-8.75" stroke="yellow" stroke-width="3.75" opacity="0.6" fill="none" stroke-linecap="round" />
<rect x="-83.75" y="7.5" width="46.25" height="17.5" rx="8.75" ry="8.75" fill="red" opacity="0.8" />
<polyline points="-47.5,8.75 -70.0,8.75 -70.0,23.75 -47.5,23.75 -47.5,8.75" stroke="yellow" stroke-width="3.75" opacity="0.6" fill="none" stroke-linecap="round" />
<polyline points="-40.0,8.75 -47.5,8.75 -47.5,23.75 -40.0,23.75" stroke="yellow" stroke-width="3.75" opacity="0.6" fill="none" stroke-linecap="round" />
<rect x="-83.75" y="40.0" width="46.25" height="17.5" rx="8.75" ry="8.75" fill="red" opacity="0.8" />
<polyline points="-47.5,41.25 -70.0,41.25 -70.0,56.25 -47.5,56.25 -47.5,41.25" stroke="yellow" stroke-width="3.75" opacity="0.6" fill="none" stroke-linecap="round" />
<polyline points="-40.0,41.25 -47.5,41.25 -47.5,56.25 -40.0,56.25" stroke="yellow" stroke-width="3.75" opacity="0.6" fill="none" stroke-linecap="round" />
<rect x="37.5" y="40.0" width="46.25" height="17.5" rx="8.75" ry="8.75" fill="red" opacity="0.8" />
<polyline points="47.5,56.25 70.0,56.25 70.0,41.25 47.5,41.25 47.5,56.25" stroke="yellow" stroke-width="3.75" opacity="0.6" fill="none" stroke-linecap="round" />
<polyline points="40.0,56.25 47.5,56.25 47.5,41.25 40.0,41.25" stroke="yellow" stroke-width="3.75" opacity="0.6" fill="none" stroke-linecap="round" />
<rect x="37.5" y="7.5" width="46.25" height="17.5" rx="8.75" ry="8.75" fill="red" opacity="0.8" />
<polyline points="47.5,23.75 70.0,23.75 70.0,8.75 47.5,8.75 47.5,23.75" stroke="yellow" stroke-width="3.75" opacity="0.6" fill="none" stroke-linecap="round" />
<polyline points="40.0,23.75 47.5,23.75 47.5,8.75 40.0,8.75" stroke="yellow" stroke-width="3.75" opacity="0.6" fill="none" stroke-linecap="round" />
<rect x="37.5" y="-25.0" width="46.25" height="17.5" rx="8.75" ry="8.75" fill="red" opacity="0.8" />
<polyline points="47.5,-8.75 70.0,-8.75 70.0,-23.75 47.5,-23.75 47.5,-8.75" stroke="yellow" stroke-width="3.75" opacity="0.6" fill="none" stroke-linecap="round" />
<polyline points="40.0,-8.75 47.5,-8.75 47.5,-23.75 40.0,-23.75" stroke="yellow" stroke-width="3.75" opacity="0.6" fill="none" stroke-linecap="round" />
<rect x="37.5" y="-57.5" width="46.25" height="17.5" rx="8.75" ry="8.75" fill="red" opacity="0.8" />
<polyline points="47.5,-41.25 70.0,-41.25 70.0,-56.25 47.5,-56.25 47.5,-41.25" stroke="yellow" stroke-width="3.75" opacity="0.6" fill="none" stroke-linecap="round" />
<polyline points="40.0,-41.25 47.5,-41.25 47.5,-56.25 40.0,-56.25" stroke="yellow" stroke-width="3.75" opacity="0.6" fill="none" stroke-linecap="round" />
<polyline points="40.0,-72.5 40.0,72.5 -40.0,72.5 -40.0,-72.5 40.0,-72.5" stroke="yellow" stroke-width="3.75" opacity="0.6" fill="none" stroke-linecap="round" />
<polyline points="10.0,0 -10.0,0" stroke="blue" stroke-width="7.5" opacity="0.6" fill="none" stroke-linecap="round" />
<polyline points="0,-10.0 0,10.0" stroke="blue" stroke-width="7.5" opacity="0.6" fill="none" stroke-linecap="round" />
<polyline points="-40.0,-72.5 40.0,-72.5" stroke="white" stroke-width="7.5" opacity="1" fill="none" stroke-linecap="round" />
<polyline points="-40.0,72.5 40.0,72.5" stroke="white" stroke-width="7.5" opacity="1" fill="none" stroke-linecap="round" />
<polyline points="-40.0,-72.5 -40.0,-72.5" stroke="white" stroke-width="7.5" opacity="1" fill="none" stroke-linecap="round" />
<polyline points="-40.0,72.5 -40.0,72.5" stroke="white" stroke-width="7.5" opacity="1" fill="none" stroke-linecap="round" />
<polyline points="40.0,-72.5 40.0,-72.5" stroke="white" stroke-width="7.5" opacity="1" fill="none" stroke-linecap="round" />
<polyline points="40.0,72.5 40.0,72.5" stroke="white" stroke-width="7.5" opacity="1" fill="none" stroke-linecap="round" />
<polyline points="-108.75,81.25 88.75,81.25 88.75,-81.25 -108.75,-81.25 -108.75,81.25" stroke="magenta" stroke-width="7.5" opacity="0.6" fill="none" stroke-linecap="round" />
</g>
</svg>